<svg width="123" height="32" viewBox="0 0 123 32" fill="none" xmlns="http://www.w3.org/2000/svg">
<path d="M1.04102 26.4535C1.93867 25.7223 2.34782 25.3838 2.26849 25.4382C4.85477 23.2458 6.88589 21.4471 8.36187 20.042C9.86451 18.6365 11.1263 17.1674 12.1474 15.6346C13.1684 14.1018 13.6699 12.6154 13.652 11.1755C13.6384 10.0823 13.3745 9.23215 12.8603 8.62517C12.346 8.01818 11.5823 7.72099 10.569 7.73359C9.55575 7.74619 8.76062 8.14277 8.18361 8.92334C7.63294 9.67691 7.36623 10.747 7.38347 12.1335L0.783977 12.2156C0.809123 9.94844 1.26555 8.04929 2.15324 6.51813C3.06761 4.98664 4.26692 3.85164 5.75119 3.11313C7.26212 2.37429 8.93751 1.99343 10.7774 1.97055C13.9505 1.9311 16.3471 2.71469 17.9672 4.32134C19.6139 5.92766 20.4535 8.03738 20.486 10.6505C20.5215 13.5036 19.5812 16.1689 17.6652 18.6462C15.7489 21.0969 13.2986 23.5009 10.3143 25.8582L21.1135 25.7239L21.1826 31.2834L1.10418 31.5331L1.04102 26.4535ZM24.0124 16.6471C23.9554 12.0608 24.7904 8.43682 26.5175 5.77514C28.2712 3.11313 31.1212 1.75759 35.0676 1.70852C39.0139 1.65945 41.8834 2.94387 43.6761 5.56178C45.4955 8.17937 46.4337 11.7813 46.4907 16.3676C46.5484 21.0073 45.7004 24.6581 43.9467 27.3201C42.2196 29.9818 39.3829 31.3372 35.4366 31.3862C31.4902 31.4353 28.6074 30.151 26.788 27.5335C24.9953 24.9155 24.0701 21.2868 24.0124 16.6471ZM39.7712 16.4512C39.7377 13.7581 39.4187 11.6952 38.8142 10.2626C38.2093 8.80334 36.987 8.08515 35.1471 8.10803C33.3073 8.1309 32.1031 8.87927 31.5348 10.3531C30.966 11.8003 30.6984 13.8705 30.7319 16.5636C30.7545 18.3768 30.8799 19.882 31.1081 21.0792C31.336 22.2498 31.7746 23.2045 32.4238 23.9431C33.0994 24.6548 34.0771 25.0026 35.357 24.9867C36.6369 24.9708 37.5924 24.5989 38.2234 23.871C38.8807 23.1161 39.3087 22.1507 39.5074 20.9748C39.7058 19.7722 39.7938 18.2644 39.7712 16.4512ZM50.1042 16.3227C50.0471 11.7364 50.8821 8.11239 52.6092 5.45071C54.3629 2.7887 57.2129 1.43316 61.1593 1.38408C65.1056 1.33501 67.9752 2.61944 69.7679 5.23735C71.5872 7.85493 72.5254 11.4569 72.5824 16.0432C72.6401 20.6828 71.7921 24.3337 70.0384 26.9957C68.3114 29.6573 65.4747 31.0127 61.5283 31.0618C57.5819 31.1109 54.6991 29.8266 52.8797 27.209C51.087 24.5911 50.1619 20.9623 50.1042 16.3227ZM65.8629 16.1267C65.8295 13.4336 65.5105 11.3708 64.9059 9.93816C64.3011 8.4789 63.0787 7.76071 61.2389 7.78359C59.399 7.80647 58.1949 8.55483 57.6265 10.0287C57.0578 11.4759 56.7902 13.546 56.8236 16.2391C56.8462 18.0523 56.9716 19.5576 57.1998 20.7548C57.4277 21.9254 57.8663 22.88 58.5155 23.6187C59.1911 24.3303 60.1688 24.6782 61.4487 24.6623C62.7286 24.6464 63.6841 24.2745 64.3151 23.5466C64.9724 22.7917 65.4004 21.8263 65.5992 20.6504C65.7976 19.4478 65.8855 17.9399 65.8629 16.1267ZM90.7013 30.8191L83.7854 21.5443L83.9018 30.9036L77.0623 30.9886L76.6943 1.39093L83.5338 1.30589L83.7372 17.6646L90.3838 8.50128L98.8231 8.39634L89.6831 19.7109L99.1806 30.7136L90.7013 30.8191ZM121.93 19.5099L114.97 19.5964L115.059 26.7159L108.579 26.7965L108.491 19.677L101.531 19.7635L101.455 13.644L108.415 13.5575L108.326 6.39803L114.805 6.31747L114.894 13.4769L121.854 13.3904L121.93 19.5099Z" fill="#FF8B00"/>
</svg>
