<svg width="48" height="41" viewBox="0 0 48 41" fill="none" xmlns="http://www.w3.org/2000/svg">
<path fill-rule="evenodd" clip-rule="evenodd" d="M13.0519 4.71103C14.9106 4.55951 16.6688 3.90506 18.076 2.84089C19.6654 1.63999 21.6956 0.966059 23.8026 0.939859C25.9097 0.913659 27.9559 1.5369 29.5747 2.69791C31.008 3.72676 32.7819 4.33729 34.6438 4.44255C36.7465 4.56156 38.7286 5.32425 40.2349 6.5939C41.7412 7.86355 42.6731 9.55713 42.8636 11.371C43.0311 12.9766 43.7817 14.4949 45.0088 15.7072C46.3922 17.0768 47.1645 18.8293 47.1871 20.6506C47.2098 22.472 46.4813 24.2431 45.1323 25.6467C43.9369 26.8894 43.2242 28.425 43.0957 30.0349C42.9503 31.853 42.0608 33.5692 40.5866 34.8759C39.1123 36.1826 37.1497 36.9943 35.0507 37.1656C33.192 37.3171 31.4338 37.9716 30.0266 39.0357C28.4371 40.2366 26.407 40.9106 24.3 40.9368C22.1929 40.963 20.1466 40.3397 18.5279 39.1787C17.0946 38.1499 15.3207 37.5393 13.4588 37.4341C11.3561 37.3151 9.37398 36.5524 7.8677 35.2827C6.36141 34.0131 5.42949 32.3195 5.23901 30.5056C5.07048 28.8994 4.31979 27.382 3.09383 26.1694C1.71037 24.7998 0.938125 23.0473 0.915478 21.226C0.892831 19.4047 1.62126 17.6335 2.97024 16.23C4.16567 14.9873 4.8784 13.4516 5.00693 11.8417C5.15225 10.0237 6.04177 8.30745 7.51603 7.00074C8.99028 5.69403 10.9529 4.88229 13.0519 4.71103ZM34.7318 17.5727C35.2528 17.0947 35.5364 16.4596 35.5217 15.8042C35.507 15.1488 35.195 14.5256 34.653 14.0688C34.1111 13.612 33.3824 13.3581 32.6241 13.3618C31.8657 13.3656 31.1383 13.6266 30.5986 14.0888L21.1775 22.4392L17.3979 19.2534C16.8468 18.8048 16.1131 18.5619 15.3549 18.577C14.5967 18.5922 13.8746 18.8641 13.3442 19.3342C12.8137 19.8044 12.5174 20.4352 12.5189 21.0907C12.5205 21.7462 12.8199 22.3741 13.3525 22.839L19.1987 27.7668C19.7469 28.2287 20.4856 28.4828 21.2525 28.4733C22.0194 28.4638 22.7516 28.1913 23.2881 27.7159L34.7318 17.5727Z" fill="#FF8B00"/>
</svg>
